<svg width="83" height="15" viewBox="0 0 83 15" fill="none" xmlns="http://www.w3.org/2000/svg">
<path d="M5.65193 9.246C5.86793 9.246 6.15593 9.21 6.51593 9.138V8.058H5.61593V5.574H9.86393V12H7.14593L6.87593 11.424H6.80393C6.17993 11.928 5.44193 12.18 4.58993 12.18C1.78193 12.18 0.37793 10.284 0.37793 6.492C0.37793 4.596 0.75593 3.15 1.51193 2.154C2.27993 1.146 3.56993 0.641998 5.38193 0.641998C6.72593 0.641998 7.99793 0.827998 9.19793 1.2L8.60393 4.584C7.25993 4.212 6.29393 4.026 5.70593 4.026C5.12993 4.026 4.74593 4.218 4.55393 4.602C4.37393 4.986 4.28393 5.64 4.28393 6.564C4.28393 7.488 4.36793 8.166 4.53593 8.598C4.71593 9.03 5.08793 9.246 5.65193 9.246Z" fill="white"/>
<path d="M10.9223 7.662C10.9223 6.078 11.2703 4.932 11.9663 4.224C12.6743 3.516 13.7723 3.162 15.2603 3.162C16.7603 3.162 17.8523 3.51 18.5363 4.206C19.2203 4.902 19.5623 6.048 19.5623 7.644C19.5623 9.228 19.2263 10.38 18.5543 11.1C17.8943 11.82 16.8023 12.18 15.2783 12.18C13.7663 12.18 12.6623 11.82 11.9663 11.1C11.2703 10.38 10.9223 9.234 10.9223 7.662ZM15.7283 6.132C15.6683 5.916 15.5123 5.808 15.2603 5.808C15.0083 5.808 14.8463 5.916 14.7743 6.132C14.7143 6.336 14.6843 6.78 14.6843 7.464V7.896C14.6843 8.664 14.7143 9.162 14.7743 9.39C14.8463 9.606 15.0083 9.714 15.2603 9.714C15.5123 9.714 15.6683 9.606 15.7283 9.39C15.8003 9.162 15.8363 8.694 15.8363 7.986V7.482C15.8363 6.786 15.8003 6.336 15.7283 6.132Z" fill="white"/>
<path d="M20.4041 9.768V0.461998H24.0941V8.94C24.0941 9.264 24.3161 9.426 24.7601 9.426L24.4901 12.18H23.0141C21.2741 12.18 20.4041 11.376 20.4041 9.768Z" fill="white"/>
<path d="M28.7584 0.335999C29.5624 0.335999 30.4564 0.365999 31.4404 0.425998L31.1524 3.252C30.3364 3.18 29.8684 3.144 29.7484 3.144C29.6404 3.144 29.5864 3.204 29.5864 3.324V3.63H31.1164L30.9184 6.06H29.6224V12H25.8604V6.06H24.9964V3.63H25.8604V2.766C25.8604 1.146 26.8264 0.335999 28.7584 0.335999Z" fill="white"/>
<path d="M35.581 12H31.783V0.821998H35.581V12Z" fill="white"/>
<path d="M47.6902 3.162C49.3462 3.162 50.1742 3.978 50.1742 5.61V12H46.3762V6.42C46.3762 6.228 46.3042 6.132 46.1602 6.132C45.9682 6.132 45.7282 6.192 45.4402 6.312V12H41.6422V6.42C41.6422 6.228 41.5642 6.132 41.4082 6.132C41.1922 6.132 40.9522 6.192 40.6882 6.312V12H36.9442V3.378H40.3462L40.4542 3.936C41.2582 3.42 42.1282 3.162 43.0642 3.162C44.0002 3.162 44.6722 3.45 45.0802 4.026C45.8962 3.45 46.7662 3.162 47.6902 3.162Z" fill="white"/>
<path d="M56.3288 12.18C55.8848 12.18 55.4408 12.096 54.9968 11.928V14.466H51.2528V3.378H54.3488L54.4928 3.774C55.0568 3.366 55.7348 3.162 56.5268 3.162C57.8228 3.162 58.6988 3.498 59.1548 4.17C59.6108 4.83 59.8388 5.964 59.8388 7.572C59.8388 9.168 59.5928 10.338 59.1008 11.082C58.6088 11.814 57.6848 12.18 56.3288 12.18ZM55.5368 9.624C55.7888 9.624 55.9448 9.492 56.0048 9.228C56.0648 8.952 56.0948 8.478 56.0948 7.806C56.0948 7.122 56.0588 6.642 55.9868 6.366C55.9148 6.078 55.7588 5.934 55.5188 5.934C55.3628 5.934 55.1768 5.982 54.9608 6.078V9.552C55.1768 9.6 55.3688 9.624 55.5368 9.624Z" fill="white"/>
<path d="M68.2711 5.7L68.1631 9.3C68.1631 9.468 68.2231 9.582 68.3431 9.642C68.4751 9.69 68.7031 9.714 69.0271 9.714L68.6851 12.108C67.9651 12.156 67.4791 12.18 67.2271 12.18C66.3511 12.18 65.7151 11.946 65.3191 11.478H65.1931C64.6171 11.946 63.8911 12.18 63.0151 12.18C62.1511 12.18 61.4911 11.952 61.0351 11.496C60.5911 11.028 60.3691 10.386 60.3691 9.57C60.3691 8.562 60.7051 7.86 61.3771 7.464C62.0611 7.068 63.1411 6.816 64.6171 6.708V6.384C64.6171 6.168 64.5031 6.06 64.2751 6.06C63.6631 6.06 62.6131 6.246 61.1251 6.618L60.5671 3.774C62.2831 3.366 63.7591 3.162 64.9951 3.162C66.2311 3.162 67.0831 3.366 67.5511 3.774C68.0311 4.182 68.2711 4.824 68.2711 5.7ZM64.2031 9.858C64.5511 9.858 64.7251 9.678 64.7251 9.318V8.634C64.1011 8.718 63.7891 8.958 63.7891 9.354C63.7891 9.69 63.9271 9.858 64.2031 9.858Z" fill="white"/>
<path d="M73.9235 5.988C73.5995 5.988 73.3835 6.132 73.2755 6.42C73.1795 6.708 73.1315 7.152 73.1315 7.752C73.1315 8.352 73.1795 8.79 73.2755 9.066C73.3715 9.33 73.5995 9.462 73.9595 9.462C74.3195 9.462 74.8895 9.384 75.6695 9.228L76.0655 11.73C75.0095 12.03 74.1215 12.18 73.4015 12.18C72.0695 12.18 71.0615 11.796 70.3775 11.028C69.7055 10.26 69.3695 9.186 69.3695 7.806C69.3695 6.426 69.7175 5.31 70.4135 4.458C71.1095 3.594 72.1235 3.162 73.4555 3.162C74.4275 3.162 75.3455 3.324 76.2095 3.648L75.8315 6.492C74.8955 6.156 74.2595 5.988 73.9235 5.988Z" fill="white"/>
<path d="M79.9438 12.18C79.0078 12.18 78.3178 12.006 77.8738 11.658C77.4418 11.298 77.2258 10.686 77.2258 9.822V5.916H76.2718V3.486H77.4058L77.6398 1.884H80.9698V3.486H82.6078V5.916H80.9518V9.246C80.9518 9.402 81.0238 9.48 81.1678 9.48C81.1798 9.48 81.6538 9.456 82.5898 9.408L82.4818 12C81.2818 12.12 80.4358 12.18 79.9438 12.18Z" fill="white"/>
</svg>
